# xmcd
#
# Track frame offsets:
#	150
#	12625
#	26072
#	38798
#	54826
#	65381
#	76018
#	89033
#	101935
#	118565
#
# Disc length: 1732 seconds
#
# Revision: 1
# Processed by: cddbd v1.5.2PL0 Copyright (c) Steve Scherf et al.
# Submitted via: audiograbber 1.83.01
#
DISCID=7d06c20a
DTITLE=April Anne - April Anne
DYEAR=1900
DGENRE=
TTITLE0=Everything Changes
TTITLE1=What Aheart Will Do For Love
TTITLE2=Love Don´t Even Know My Name
TTITLE3=I Only See Me With You
TTITLE4=I Will Love Again
TTITLE5=I Got You 
TTITLE6=I Never
TTITLE7=When You Love Somebody
TTITLE8=I´ve Been There Too
TTITLE9=Looking On The Bright Side 
EXTD=
EXTT0=
EXTT1=
EXTT2=
EXTT3=
EXTT4=
EXTT5=
EXTT6=
EXTT7=
EXTT8=
EXTT9=
PLAYORDER=
